<svg width="26" height="26" viewBox="0 0 26 26" fill="none" xmlns="http://www.w3.org/2000/svg">
<path d="M16.125 19.25V20.0312C16.125 20.8601 15.7958 21.6549 15.2097 22.241C14.6237 22.827 13.8288 23.1562 13 23.1562C12.1712 23.1562 11.3763 22.827 10.7903 22.241C10.2042 21.6549 9.875 20.8601 9.875 20.0312V19.25M21.3828 17.6597C20.1289 16.125 19.2436 15.3438 19.2436 11.1128C19.2436 7.23828 17.2651 5.85791 15.6367 5.1875C15.4204 5.09863 15.2168 4.89453 15.1509 4.67236C14.8652 3.7002 14.0644 2.84375 13 2.84375C11.9355 2.84375 11.1343 3.70068 10.8516 4.67334C10.7856 4.89795 10.582 5.09863 10.3657 5.1875C8.73535 5.85889 6.75879 7.23438 6.75879 11.1128C6.75634 15.3438 5.87109 16.125 4.61718 17.6597C4.09765 18.2954 4.55273 19.25 5.46142 19.25H20.5435C21.4473 19.25 21.8994 18.2925 21.3828 17.6597Z" stroke="black" stroke-width="1.25" stroke-linecap="round" stroke-linejoin="round"/>
</svg>
