<svg width="26" height="26" viewBox="0 0 26 26" fill="none" xmlns="http://www.w3.org/2000/svg">
<path d="M7.25 3H13.75C14.612 3 15.4386 3.34241 16.0481 3.9519C16.6576 4.5614 17 5.38805 17 6.25V10.5833H15.9167V6.25C15.9167 5.67536 15.6884 5.12426 15.2821 4.71794C14.8757 4.31161 14.3246 4.08333 13.75 4.08333H7.25C6.67536 4.08333 6.12426 4.31161 5.71794 4.71794C5.31161 5.12426 5.08333 5.67536 5.08333 6.25V20.3333C5.08333 20.908 5.31161 21.4591 5.71794 21.8654C6.12426 22.2717 6.67536 22.5 7.25 22.5H13.75C14.3246 22.5 14.8757 22.2717 15.2821 21.8654C15.6884 21.4591 15.9167 20.908 15.9167 20.3333V16H17V20.3333C17 21.1953 16.6576 22.0219 16.0481 22.6314C15.4386 23.2409 14.612 23.5833 13.75 23.5833H7.25C6.38805 23.5833 5.5614 23.2409 4.9519 22.6314C4.34241 22.0219 4 21.1953 4 20.3333V6.25C4 5.38805 4.34241 4.5614 4.9519 3.9519C5.5614 3.34241 6.38805 3 7.25 3ZM10.5 12.75H22.6875L19.1667 9.22917L19.8817 8.41667L24.7567 13.2917L19.8817 18.1667L19.1667 17.3542L22.6875 13.8333H10.5V12.75Z" fill="black"/>
</svg>
