<svg width="21" height="30" viewBox="0 0 21 30" fill="none" xmlns="http://www.w3.org/2000/svg">
<path d="M10.8691 0.979407C10.981 0.955673 11.0989 0.967021 11.2051 1.01456L20.6777 5.26163C20.873 5.34948 20.9989 5.54356 20.999 5.75773C20.9989 5.97199 20.8732 6.16706 20.6777 6.2548L17.8418 7.52531V11.3105C17.8416 11.5246 17.7158 11.7197 17.5205 11.8075L11.2051 14.6386C11.0626 14.7024 10.899 14.7021 10.7568 14.6376L4.5498 11.8066C4.35609 11.7181 4.23161 11.5234 4.23145 11.3105V7.57413L2.9248 6.9882V14.3593C2.92457 14.6596 2.68116 14.9039 2.38086 14.9042C2.08034 14.9042 1.83617 14.6598 1.83594 14.3593V6.50089L1.28711 6.2548C1.0915 6.16711 0.965987 5.97207 0.96582 5.75773C0.965926 5.54337 1.09152 5.34937 1.28711 5.26163L10.7598 1.01456L10.8691 0.979407ZM11.2051 10.5009C11.0636 10.5643 10.9013 10.5642 10.7598 10.5009L5.32031 8.06144V10.9599L10.9844 13.5439L16.7529 10.9579V8.01359L11.2051 10.5009ZM2.84082 5.75773L4.99902 6.7255L10.9824 9.40714L17.0752 6.67667L19.124 5.75773L10.9824 2.10831L2.84082 5.75773Z" fill="black"/>
<path d="M8.36058 14.2469C8.38841 14.2939 8.41563 14.3415 8.44554 14.3876C8.89384 15.0511 9.46789 15.6786 10.1672 16.2704C10.8666 16.8442 11.6106 17.4098 12.3996 17.9657C13.1887 18.5216 13.9336 19.104 14.633 19.7137C15.3324 20.3055 15.897 20.9697 16.3274 21.705C16.7756 22.4222 17.0002 23.2378 17.0002 24.1522C17.0002 25.2461 16.6949 26.2146 16.0852 27.0575C15.4755 27.9004 14.6329 28.5645 13.5569 29.0487C12.4989 29.5329 11.2794 29.7742 9.89867 29.7743C8.64338 29.7743 7.53111 29.5686 6.56273 29.1561C5.59431 28.7437 4.83156 28.1697 4.27562 27.4344C3.73777 26.6993 3.46905 25.8564 3.46898 24.9061C3.46898 24.2785 3.59488 23.7224 3.84593 23.2382C4.11491 22.754 4.48226 22.3773 4.94847 22.1083C5.41475 21.8393 5.95299 21.705 6.56273 21.705C6.70591 21.705 6.83125 21.7135 6.93871 21.7313C7.06424 21.7493 7.18169 21.7765 7.28929 21.8124C6.73342 22.6372 6.45537 23.5157 6.45531 24.4481C6.45531 25.5062 6.80472 26.3676 7.50414 27.0311C8.20349 27.6766 9.12706 27.9989 10.2746 27.9989C11.3865 27.9989 12.3014 27.6946 13.0188 27.0848C13.7361 26.4751 14.095 25.6945 14.095 24.744C14.0949 23.991 13.8704 23.3097 13.4221 22.7001C12.9917 22.0724 12.4356 21.4891 11.7541 20.951C11.0728 20.3952 10.3464 19.8399 9.57542 19.2841C8.80428 18.7281 8.07819 18.1354 7.39671 17.5077C6.71529 16.8621 6.14972 16.1454 5.7014 15.3563C5.28835 14.5991 5.07548 13.7425 5.05882 12.787L8.36058 14.2469ZM17.469 12.4178C17.4109 12.8078 17.2916 13.1687 17.1077 13.4999C16.8566 13.9841 16.4978 14.3702 16.0315 14.6571C15.5653 14.926 15.0362 15.0604 14.4446 15.0604C14.2652 15.0604 14.0942 15.051 13.9328 15.0331C13.7897 15.0152 13.6464 14.9888 13.5032 14.953C13.8249 14.6172 14.0903 14.2421 14.303 13.83L17.469 12.4178Z" fill="black"/>
</svg>
