<svg width="321" height="126" viewBox="0 0 321 126" fill="none" xmlns="http://www.w3.org/2000/svg">
<path d="M63 125.5C97.5178 125.5 125.5 97.5178 125.5 63C125.5 28.4822 97.5178 0.5 63 0.5C28.4822 0.5 0.5 28.4822 0.5 63C0.5 97.5178 28.4822 125.5 63 125.5Z" fill="#1976D2" stroke="black"/>
<path d="M39.9493 57.9469H43.1067C43.5049 60.5069 44.2444 62.8109 45.3253 64.8589C46.4631 66.9069 47.8569 68.6419 49.5067 70.0639C51.2133 71.4859 53.1476 72.5959 55.309 73.3919C57.528 74.1319 59.917 74.5009 62.477 74.5009C66.687 74.5009 70.015 73.5059 72.461 71.5149C74.908 69.5239 76.131 66.8209 76.131 63.4079C76.131 61.9859 75.875 60.6769 75.363 59.4829C74.908 58.2879 74.111 57.1499 72.973 56.0689C71.836 54.9319 70.3 53.8219 68.365 52.7409C66.488 51.6599 64.099 50.4939 61.197 49.2429C57.67 47.7069 54.712 46.2279 52.3227 44.8049C49.9333 43.3829 48.0276 41.9039 46.6053 40.3679C45.1831 38.8319 44.1591 37.2106 43.5333 35.5039C42.9644 33.7403 42.68 31.7492 42.68 29.5306C42.68 26.9137 43.1351 24.4959 44.0453 22.2772C45.0124 20.0586 46.3493 18.1528 48.056 16.5599C49.7627 14.9101 51.7822 13.6586 54.115 12.8052C56.447 11.895 59.007 11.4399 61.795 11.4399C64.298 11.4399 66.63 11.8381 68.792 12.6346C70.954 13.431 73.144 14.711 75.363 16.4746L77.581 12.6346H79.544L80.483 29.6159H77.325C75.96 24.951 73.969 21.4808 71.352 19.2052C68.792 16.9297 65.692 15.7919 62.051 15.7919C58.58 15.7919 55.821 16.6452 53.7733 18.3519C51.7253 20.0586 50.7013 22.3626 50.7013 25.2639C50.7013 26.6292 50.9289 27.8808 51.384 29.0186C51.8391 30.0995 52.5787 31.1519 53.6027 32.1759C54.627 33.143 55.964 34.1386 57.613 35.1626C59.263 36.1297 61.311 37.1537 63.757 38.2346C67.967 40.1119 71.466 41.8755 74.253 43.5249C77.041 45.1179 79.26 46.7399 80.909 48.3889C82.559 49.9819 83.725 51.6889 84.408 53.5089C85.091 55.2729 85.432 57.2639 85.432 59.4829C85.432 62.3269 84.863 64.9439 83.725 67.3329C82.588 69.7229 80.995 71.7709 78.947 73.4769C76.899 75.1839 74.452 76.5209 71.608 77.4879C68.764 78.3979 65.635 78.8529 62.221 78.8529C58.979 78.8529 56.049 78.3979 53.432 77.4879C50.872 76.5779 48.2551 75.0419 45.5813 72.8799L43.192 77.0609H41.2293L39.9493 57.9469Z" fill="white"/>
<path d="M39.9493 92.9469H43.1067C43.5049 95.5069 44.2444 97.8109 45.3253 99.8589C46.4631 101.907 47.8569 103.642 49.5067 105.064C51.2133 106.486 53.1476 107.596 55.309 108.392C57.528 109.132 59.917 109.501 62.477 109.501C66.687 109.501 70.015 108.506 72.461 106.515C74.908 104.524 76.131 101.821 76.131 98.4079C76.131 96.9859 75.875 95.6769 75.363 94.4829C74.908 93.2879 74.111 92.1499 72.973 91.0689C71.836 89.9319 70.3 88.8219 68.365 87.7409C66.488 86.6599 64.099 85.4939 61.197 84.2429C57.67 82.7069 54.712 81.2279 52.3227 79.8049C49.9333 78.3829 48.0276 76.9039 46.6053 75.3679C45.1831 73.8319 44.1591 72.2109 43.5333 70.5039C42.9644 68.7399 42.68 66.7489 42.68 64.5309C42.68 61.9139 43.1351 59.4959 44.0453 57.2769C45.0124 55.0589 46.3493 53.1529 48.056 51.5599C49.7627 49.9099 51.7822 48.6589 54.115 47.8049C56.447 46.8949 59.007 46.4399 61.795 46.4399C64.298 46.4399 66.63 46.8379 68.792 47.6349C70.954 48.4309 73.144 49.7109 75.363 51.4749L77.581 47.6349H79.544L80.483 64.6159H77.325C75.96 59.9509 73.969 56.4809 71.352 54.2049C68.792 51.9299 65.692 50.7919 62.051 50.7919C58.58 50.7919 55.821 51.6449 53.7733 53.3519C51.7253 55.0589 50.7013 57.3629 50.7013 60.2639C50.7013 61.6289 50.9289 62.8809 51.384 64.0189C51.8391 65.0999 52.5787 66.1519 53.6027 67.1759C54.627 68.1429 55.964 69.1389 57.613 70.1629C59.263 71.1299 61.311 72.1539 63.757 73.2349C67.967 75.1119 71.466 76.8759 74.253 78.5249C77.041 80.1179 79.26 81.7399 80.909 83.3889C82.559 84.9819 83.725 86.6889 84.408 88.5089C85.091 90.2729 85.432 92.2639 85.432 94.4829C85.432 97.3269 84.863 99.9439 83.725 102.333C82.588 104.723 80.995 106.771 78.947 108.477C76.899 110.184 74.452 111.521 71.608 112.488C68.764 113.398 65.635 113.853 62.221 113.853C58.979 113.853 56.049 113.398 53.432 112.488C50.872 111.578 48.2551 110.042 45.5813 107.88L43.192 112.061H41.2293L39.9493 92.9469Z" fill="white"/>
<path d="M40.4908 56.6281C40.4908 56.6681 40.4908 56.7091 40.4908 57.8801C40.4908 59.0511 40.4908 61.3521 40.4302 62.9621C40.3697 64.5711 40.2486 65.4191 40.1862 66.4611C40.0515 68.7111 40.2853 70.8101 40.5501 72.2561C40.8382 73.8291 41.2223 75.538 41.3471 76.568C41.366 76.724 41.3471 75.7661 41.4884 75.9781C43.2992 78.6981 43.1002 80.7251 43.2017 81.1731C43.2887 81.5571 42.7809 79.3651 41.56 75.3931C41.0521 73.7411 40.5006 72.9151 40.4932 72.9231C39.7758 73.6401 41.5502 74.8541 41.612 74.5541C41.8931 73.1841 40.9434 70.9531 40.2308 68.8961C39.7767 67.5851 39.3506 66.9061 39.0454 66.5191C38.8453 66.2651 39.665 68.392 41.2144 71.633C41.7592 72.773 41.7949 72.8961 41.7753 72.8781C41.1021 72.2461 40.9826 70.4571 40.6559 70.0861C40.1003 69.4551 41.1795 72.6441 42.2359 74.6971C43.4452 77.0481 44.4459 78.2801 44.3859 77.9181C44.1226 76.3311 43.269 74.2131 42.3931 72.6041C42.0606 71.9921 41.8805 71.8411 41.8175 71.9201C41.0412 72.8841 42.7711 74.5251 43.1797 75.0971C43.6622 75.7711 41.6774 72.7391 41.2664 72.3071C41.235 72.2751 41.2248 72.4871 41.2652 72.6311C41.3863 72.8961 41.6713 73.223 42.0377 73.609C42.2022 73.794 42.3234 73.9551 42.4481 74.4891" stroke="#1976D2" stroke-width="2" stroke-linecap="round"/>
<path d="M43.1821 55.771C43.061 56.096 42.8151 56.828 42.4903 57.462C42.1569 58.111 41.9588 59.192 41.6542 60.172C41.3974 60.998 41.4695 63.053 41.3679 64.999C41.1668 68.855 41.6309 69.51 42.0793 70.408C42.4591 71.168 42.8959 71.753 43.2825 72.407C43.6518 73.031 44.0776 73.508 44.4043 74.119C44.7309 74.732 45.1371 75.624 45.5053 76.444C45.5873 76.608 45.668 76.769 45.7512 76.935" stroke="#1976D2" stroke-width="2" stroke-linecap="round"/>
<path d="M43.4268 55.527C43.3865 56.055 43.0623 56.625 42.6738 57.277C42.557 57.474 42.4506 57.724 42.4084 57.788C42.3662 57.852 42.4065 57.731 42.4475 57.588C42.4885 57.445 42.5289 57.284 42.8151 56.872" stroke="#1976D2" stroke-width="2" stroke-linecap="round"/>
<path d="M43.2725 57.95C43.2252 58.069 42.9638 58.402 42.7309 58.629C42.6235 58.734 42.9259 58.202 42.9799 58.112C43.1612 57.809 42.8428 58.917 42.8487 58.989C42.8546 59.06 42.9141 58.763 42.9678 58.667C43.049 58.522 42.9026 59.012 42.8965 59.048C42.8746 59.179 42.9502 58.763 42.9502 58.715C42.9502 58.57 42.855 59.024 42.8192 59.221C42.757 59.562 42.5334 59.87 42.4491 60.074C42.3658 60.276 42.3894 60.48 42.3655 60.683C42.3362 60.931 42.2698 61.089 42.1986 61.25C42.1165 61.436 42.0199 61.626 41.9121 61.817C41.8071 62.003 41.7212 62.199 41.6554 62.39C41.6375 62.438 41.6138 62.485 41.5957 62.527C41.5776 62.569 41.5658 62.605 41.5537 62.677" stroke="#1976D2" stroke-linecap="round"/>
<path d="M42.0811 56.505C41.9588 56.83 41.6358 58.047 41.4291 58.95C41.2734 59.63 41.0217 60.254 40.9397 61.171C40.848 62.197 40.5324 62.742 40.4706 64.186C40.41 64.739 40.3281 65.068 40.2669 65.352C40.2461 65.515 40.2461 65.717 40.2461 65.925" stroke="#1976D2" stroke-width="2" stroke-linecap="round"/>
<path d="M42.6996 59.812C42.6996 59.955 42.6759 60.17 42.6222 60.373C42.5762 60.547 42.509 60.707 42.4253 60.957C42.3372 61.22 42.3415 61.47 42.3058 61.644C42.2492 61.92 42.2462 62.33 42.2043 62.515C42.1528 62.743 42.1624 62.915 42.1327 63.106C42.083 63.426 42.0672 63.666 41.9955 63.953C41.9282 64.224 41.8523 64.609 41.7452 64.967C41.6956 65.133 41.6267 65.405 41.5606 65.758C41.4355 66.536 41.351 67.022 41.3093 67.117C41.2912 67.165 41.2794 67.212 41.2672 67.297" stroke="#1976D2" stroke-linecap="round"/>
<path d="M44.22 58.512C44.2002 58.631 44.0808 58.871 43.9304 59.171C43.7869 59.457 43.7002 59.711 43.5702 60.171C43.4583 60.566 43.4397 60.931 43.38 61.222C43.3125 61.551 43.2404 61.872 43.1897 62.312C43.152 62.638 43.0795 63.032 43.0198 63.313C42.9997 63.373 42.9799 63.433 42.9697 63.919C42.9595 64.405 42.9595 65.316 42.9595 66.255" stroke="white" stroke-linecap="round"/>
<path d="M44.4001 60.613C44.2807 60.692 44.1204 61.011 43.9904 61.382C43.8706 61.723 43.8599 62.092 43.8001 62.412C43.7396 62.737 43.6798 63.171 43.6201 63.523C43.5473 63.951 43.5201 64.273 43.4499 64.93C43.226 67.023 43.5393 67.314 43.6594 67.654C43.759 68.214 43.9991 68.815 44.2689 69.215C44.3395 69.296 44.3989 69.336 44.4601 69.377" stroke="white" stroke-linecap="round"/>
<path d="M41.7547 66.183C41.6959 66.256 41.6079 66.491 41.5852 67.41C41.5761 67.777 41.6955 67.98 41.7472 68.179C41.8012 68.387 41.7989 68.715 41.8429 69.011C41.8824 69.277 41.9165 69.6 41.9755 69.888C42.0049 70.013 42.0346 70.117 42.064 70.205C42.0788 70.25 42.0934 70.293 42.1084 70.383" stroke="#1976D2" stroke-linecap="round"/>
<path d="M42.9517 69.373C42.9616 69.423 42.9917 69.512 43.0093 69.598C43.0257 69.678 43.0519 69.748 43.0745 69.821C43.0982 69.898 43.1771 69.969 43.2223 70.049C43.2655 70.126 43.3076 70.185 43.3552 70.247C43.4088 70.318 43.4478 70.425 43.4931 70.501C43.5325 70.566 43.5634 70.646 43.6084 70.701C43.6608 70.766 43.7036 70.866 43.7788 70.964C43.845 71.051 43.9091 71.137 43.9544 71.218C44.0235 71.34 44.0848 71.413 44.1249 71.483C44.1783 71.577 44.265 71.748 44.3205 71.857C44.3614 71.937 44.4257 72.015 44.5132 72.132C44.6851 72.363 44.8312 72.471 44.9072 72.562C44.9536 72.617 44.9874 72.692 45.0525 72.772C45.1106 72.844 45.1378 72.923 45.1979 73.018C45.279 73.146 45.3731 73.273 45.5359 73.494C45.7252 73.75 45.7645 73.8 45.7948 73.855C45.8025 73.869 45.8048 73.885 45.7975 73.895C45.7901 73.906 45.7702 73.911 45.7526 73.911C45.6867 73.911 45.6198 73.831 45.5844 73.765C45.5533 73.708 45.5193 73.645 45.4816 73.585C45.4475 73.53 45.4291 73.455 45.3889 73.377C45.3534 73.308 45.2837 73.264 45.2385 73.209C45.1899 73.15 45.1384 73.083 45.098 73.018C45.055 72.949 44.9678 72.883 44.8976 72.805C44.8457 72.748 44.8123 72.673 44.7621 72.595C44.7184 72.527 44.667 72.442 44.6217 72.381C44.5798 72.326 44.5466 72.251 44.4989 72.171C44.4518 72.092 44.3962 72.016 44.3384 71.945C44.2916 71.888 44.2457 71.825 44.2005 71.755C44.1215 71.632 44.0652 71.584 44.0275 71.522C43.9779 71.439 43.9148 71.359 43.872 71.283C43.8043 71.164 43.7141 70.958 43.6739 70.88C43.6378 70.81 43.5838 70.742 43.551 70.669C43.521 70.602 43.4536 70.516 43.3807 70.416C43.3378 70.357 43.3079 70.281 43.2553 70.193C43.1907 70.085 43.1825 69.985 43.1499 69.909C43.1111 69.819 43.1122 69.744 43.1047 69.741C42.9659 69.69 43.1521 69.969 43.2072 70.022C43.2625 70.075 43.2974 70.13 43.3277 70.185C43.3592 70.242 43.3829 70.315 43.4279 70.393C43.4628 70.453 43.4981 70.516 43.5383 70.576C43.577 70.634 43.6133 70.706 43.6561 70.771C43.6961 70.832 43.7388 70.907 43.7665 70.967C43.8128 71.068 43.8943 71.193 43.9419 71.265C43.9857 71.332 44.0246 71.413 44.0773 71.468C44.1339 71.528 44.1501 71.599 44.1976 71.671C44.2386 71.734 44.2855 71.789 44.3205 71.855C44.3567 71.922 44.4106 72.01 44.4559 72.093C44.4949 72.164 44.5611 72.25 44.6063 72.323C44.6525 72.398 44.6865 72.491 44.7292 72.569C44.7858 72.672 44.837 72.752 44.8896 72.832C44.9408 72.91 44.9874 72.993 45.0325 73.058C45.0849 73.134 45.1577 73.203 45.2106 73.269C45.2674 73.339 45.3433 73.394 45.3911 73.449C45.4412 73.507 45.4889 73.539 45.539 73.602C45.5999 73.678 45.714 73.775 45.7822 73.855C45.7949 73.87 45.8097 73.885 45.8074 73.883C45.7499 73.826 45.7098 73.756 45.6598 73.718C45.6051 73.676 45.5494 73.645 45.4968 73.597C45.4441 73.55 45.399 73.495 45.3713 73.435C45.3568 73.403 45.3287 73.374 45.3111 73.359C45.2691 73.323 45.3936 73.464 45.4487 73.534C45.4971 73.596 45.559 73.645 45.5992 73.717C45.609 73.735 45.6192 73.75 45.6169 73.755C45.6098 73.771 45.5694 73.745 45.5419 73.73C45.4806 73.697 45.4492 73.625 45.4164 73.555C45.3807 73.479 45.3189 73.41 45.2586 73.337C45.1757 73.237 45.1333 73.199 45.088 73.134C45.0339 73.056 44.9877 72.973 44.9426 72.918C44.8931 72.857 44.8673 72.788 44.8223 72.723C44.7708 72.648 44.7521 72.577 44.687 72.504C44.6312 72.442 44.5815 72.382 44.534 72.334C44.4833 72.283 44.4512 72.216 44.4236 72.156C44.395 72.094 44.3511 72.026 44.3058 71.958C44.2605 71.89 44.2205 71.84 44.1754 71.792C44.1291 71.743 44.1001 71.665 44.0551 71.612C44.0068 71.555 43.9548 71.469 43.9122 71.389C43.8703 71.31 43.8345 71.253 43.7818 71.156C43.7437 71.085 43.6891 71.018 43.6164 70.937C43.5546 70.869 43.5336 70.802 43.466 70.677C43.4169 70.586 43.3582 70.511 43.3154 70.428C43.2809 70.362 43.2427 70.271 43.1976 70.16C43.1657 70.082 43.1325 69.99 43.0997 69.899C43.0688 69.814 43.017 69.749 42.9944 69.686C42.9674 69.611 42.9418 69.553 42.9092 69.491C42.8741 69.423 42.8566 69.318 42.8339 69.203C42.8314 69.163 42.8314 69.103 42.8289 69.06C42.8264 69.017 42.8214 68.992 42.8163 68.921" stroke="white" stroke-width="0.5" stroke-linecap="round"/>
<path d="M135.214 52.545H136.813C137.196 55.142 138.234 57.192 139.929 58.695C141.624 60.171 143.715 60.909 146.202 60.909C147.213 60.909 148.143 60.786 148.99 60.54C149.837 60.294 150.562 59.952 151.163 59.515C151.764 59.05 152.229 58.517 152.557 57.916C152.885 57.287 153.049 56.59 153.049 55.825C153.049 55.169 152.94 54.609 152.721 54.144C152.53 53.652 152.147 53.187 151.573 52.75C150.999 52.285 150.206 51.821 149.195 51.356C148.211 50.891 146.926 50.358 145.341 49.757C142.143 48.527 139.779 47.106 138.248 45.493C136.717 43.853 135.952 41.926 135.952 39.712C135.952 38.4273 136.198 37.252 136.69 36.186C137.182 35.12 137.865 34.2043 138.74 33.439C139.642 32.6737 140.708 32.086 141.938 31.676C143.195 31.2387 144.576 31.02 146.079 31.02C147.473 31.02 148.785 31.2387 150.015 31.676C151.245 32.1133 152.461 32.7693 153.664 33.644L154.402 31.594H155.386L155.837 40.45H154.238C153.582 38.2087 152.557 36.5003 151.163 35.325C149.769 34.1223 148.156 33.521 146.325 33.521C144.63 33.521 143.25 33.9447 142.184 34.792C141.145 35.612 140.626 36.678 140.626 37.99C140.626 38.564 140.722 39.0833 140.913 39.548C141.104 39.9853 141.46 40.409 141.979 40.819C142.498 41.229 143.209 41.6527 144.111 42.09C145.013 42.5 146.175 42.965 147.596 43.484C149.509 44.222 151.136 44.974 152.475 45.739C153.842 46.477 154.949 47.283 155.796 48.158C156.671 49.005 157.313 49.907 157.723 50.864C158.133 51.821 158.338 52.873 158.338 54.021C158.338 55.415 158.037 56.686 157.436 57.834C156.835 58.982 155.987 59.966 154.894 60.786C153.828 61.606 152.543 62.248 151.04 62.713C149.564 63.178 147.924 63.41 146.12 63.41C144.48 63.41 143.004 63.191 141.692 62.754C140.38 62.289 139.027 61.551 137.633 60.54L136.813 63H135.829L135.214 52.545ZM160.971 43.525V41.68C162.611 41.2153 163.978 40.5183 165.071 39.589C166.192 38.6323 167.026 37.539 167.572 36.309H169.663V41.27H174.378V43.525H169.663V56.112C169.663 57.807 169.841 59.009 170.196 59.72C170.579 60.431 171.208 60.786 172.082 60.786C173.148 60.786 173.955 60.294 174.501 59.31L175.362 60.499C174.597 62.44 172.793 63.41 169.95 63.41C168.064 63.41 166.588 62.973 165.522 62.098C164.484 61.223 163.964 59.993 163.964 58.408V43.525H160.971ZM194.667 47.994C194.667 46.901 194.639 46.04 194.585 45.411C194.53 44.755 194.38 44.263 194.134 43.935C193.888 43.58 193.519 43.347 193.027 43.238C192.562 43.101 191.92 42.992 191.1 42.91V41.27H200.366V53.693C200.366 55.36 200.379 56.672 200.407 57.629C200.461 58.558 200.543 59.255 200.653 59.72C200.735 60.075 200.83 60.362 200.94 60.581C201.049 60.772 201.227 60.936 201.473 61.073C201.719 61.182 202.047 61.264 202.457 61.319C202.894 61.346 203.454 61.36 204.138 61.36V62.959L195.979 63.451L195.528 59.802H195.364C194.653 60.95 193.655 61.838 192.371 62.467C191.086 63.096 189.651 63.41 188.066 63.41C185.141 63.41 182.913 62.371 181.383 60.294C180.207 58.709 179.62 56.454 179.62 53.529V47.994C179.62 46.873 179.592 45.999 179.538 45.37C179.483 44.714 179.333 44.222 179.087 43.894C178.868 43.566 178.526 43.347 178.062 43.238C177.597 43.101 176.955 42.992 176.135 42.91V41.27H185.319V52.873C185.319 55.634 185.66 57.643 186.344 58.9C187.027 60.13 188.12 60.745 189.624 60.745C191.236 60.745 192.48 60.007 193.355 58.531C194.229 57.11 194.667 55.019 194.667 52.258V47.994ZM224.391 60.376H224.227C222.341 62.399 219.895 63.41 216.888 63.41C215.33 63.41 213.895 63.137 212.583 62.59C211.298 62.043 210.178 61.278 209.221 60.294C208.292 59.31 207.567 58.148 207.048 56.809C206.529 55.442 206.269 53.939 206.269 52.299C206.269 50.659 206.529 49.142 207.048 47.748C207.595 46.354 208.319 45.151 209.221 44.14C210.15 43.101 211.244 42.295 212.501 41.721C213.786 41.147 215.166 40.86 216.642 40.86C218.009 40.86 219.211 41.065 220.25 41.475C221.316 41.885 222.245 42.582 223.038 43.566H223.202V40.081C223.202 38.4683 223.175 37.088 223.12 35.94C223.093 34.7647 223.038 33.9993 222.956 33.644C222.819 33.07 222.396 32.66 221.685 32.414C221.002 32.1407 219.936 32.004 218.487 32.004V30.61L228.86 28.97V52.422C228.86 54.472 228.874 56.057 228.901 57.178C228.956 58.271 229.038 59.105 229.147 59.679C229.202 60.034 229.284 60.321 229.393 60.54C229.502 60.759 229.666 60.936 229.885 61.073C230.104 61.182 230.391 61.264 230.746 61.319C231.129 61.346 231.607 61.36 232.181 61.36V62.959L224.391 63.41V60.376ZM223.12 51.233C223.12 50.194 223.011 49.238 222.792 48.363C222.573 47.461 222.245 46.668 221.808 45.985C221.316 45.192 220.687 44.591 219.922 44.181C219.157 43.771 218.337 43.566 217.462 43.566C215.849 43.566 214.619 44.304 213.772 45.78C212.925 47.256 212.501 49.402 212.501 52.217C212.501 55.06 212.925 57.246 213.772 58.777C214.619 60.308 215.836 61.073 217.421 61.073C218.323 61.073 219.184 60.841 220.004 60.376C220.824 59.911 221.494 59.283 222.013 58.49C222.396 57.889 222.669 57.151 222.833 56.276C223.024 55.374 223.12 54.226 223.12 52.832V51.233ZM255.278 59.187C252.79 62.002 249.688 63.41 245.971 63.41C244.276 63.41 242.732 63.15 241.338 62.631C239.971 62.084 238.796 61.333 237.812 60.376C236.828 59.392 236.062 58.23 235.516 56.891C234.969 55.552 234.696 54.062 234.696 52.422C234.696 50.727 234.983 49.183 235.557 47.789C236.131 46.368 236.937 45.151 237.976 44.14C239.042 43.101 240.285 42.295 241.707 41.721C243.155 41.147 244.741 40.86 246.463 40.86C249.36 40.86 251.615 41.639 253.228 43.197C254.84 44.755 255.647 46.942 255.647 49.757C255.647 50.194 255.578 50.468 255.442 50.577C255.305 50.659 254.922 50.7 254.294 50.7H241.092C240.982 50.946 240.928 51.397 240.928 52.053C240.928 54.732 241.502 56.85 242.65 58.408C243.825 59.966 245.41 60.745 247.406 60.745C248.554 60.745 249.688 60.485 250.809 59.966C251.957 59.447 253.064 58.709 254.13 57.752L255.278 59.187ZM247.324 48.404C248.417 48.404 249.114 48.349 249.415 48.24C249.743 48.103 249.907 47.803 249.907 47.338C249.907 46.135 249.565 45.151 248.882 44.386C248.198 43.621 247.337 43.238 246.299 43.238C245.123 43.238 244.071 43.73 243.142 44.714C242.24 45.671 241.652 46.901 241.379 48.404H247.324ZM267.658 56.317C267.658 57.438 267.685 58.326 267.74 58.982C267.822 59.611 267.972 60.103 268.191 60.458C268.437 60.786 268.792 61.005 269.257 61.114C269.749 61.223 270.405 61.305 271.225 61.36V63H258.31V61.36C259.103 61.305 259.731 61.223 260.196 61.114C260.688 61.005 261.057 60.786 261.303 60.458C261.576 60.13 261.754 59.665 261.836 59.064C261.918 58.463 261.959 57.643 261.959 56.604V51.479C261.959 49.866 261.932 48.568 261.877 47.584C261.822 46.573 261.754 45.889 261.672 45.534C261.59 45.179 261.481 44.892 261.344 44.673C261.207 44.427 261.002 44.249 260.729 44.14C260.456 44.003 260.114 43.921 259.704 43.894C259.294 43.839 258.775 43.812 258.146 43.812V42.418L266.059 40.86L266.592 44.468H266.756C267.658 43.32 268.724 42.432 269.954 41.803C271.184 41.1743 272.537 40.86 274.013 40.86C275.762 40.86 277.17 41.106 278.236 41.598C279.329 42.063 280.3 42.855 281.147 43.976C281.612 44.605 282.022 45.425 282.377 46.436C282.732 47.42 282.91 48.787 282.91 50.536V56.317C282.91 57.438 282.937 58.326 282.992 58.982C283.074 59.611 283.224 60.103 283.443 60.458C283.689 60.786 284.044 61.005 284.509 61.114C284.974 61.223 285.602 61.305 286.395 61.36V63H273.562V61.36C274.382 61.333 275.024 61.264 275.489 61.155C275.981 61.018 276.35 60.786 276.596 60.458C276.842 60.13 277.006 59.665 277.088 59.064C277.17 58.435 277.211 57.615 277.211 56.604V51.028C277.211 49.634 277.129 48.459 276.965 47.502C276.801 46.545 276.528 45.78 276.145 45.206C275.79 44.605 275.311 44.181 274.71 43.935C274.109 43.662 273.357 43.525 272.455 43.525C271.58 43.525 270.829 43.771 270.2 44.263C269.571 44.755 269.025 45.438 268.56 46.313C268.314 46.805 268.095 47.447 267.904 48.24C267.74 49.005 267.658 49.812 267.658 50.659V56.317ZM287.935 43.525V41.68C289.575 41.2153 290.942 40.5183 292.035 39.589C293.156 38.6323 293.989 37.539 294.536 36.309H296.627V41.27H301.342V43.525H296.627V56.112C296.627 57.807 296.805 59.009 297.16 59.72C297.543 60.431 298.171 60.786 299.046 60.786C300.112 60.786 300.918 60.294 301.465 59.31L302.326 60.499C301.561 62.44 299.757 63.41 296.914 63.41C295.028 63.41 293.552 62.973 292.486 62.098C291.447 61.223 290.928 59.993 290.928 58.408V43.525H287.935ZM306.05 63H304.779V55.538H306.501C306.966 57.506 307.636 58.941 308.51 59.843C309.385 60.745 310.519 61.196 311.913 61.196C312.925 61.196 313.704 60.991 314.25 60.581C314.824 60.144 315.111 59.556 315.111 58.818C315.111 58.053 314.77 57.315 314.086 56.604C313.403 55.866 312.296 55.087 310.765 54.267C308.688 53.146 307.198 52.039 306.296 50.946C305.394 49.825 304.943 48.568 304.943 47.174C304.943 46.272 305.107 45.438 305.435 44.673C305.791 43.88 306.255 43.197 306.829 42.623C307.431 42.049 308.141 41.6117 308.961 41.311C309.781 40.983 310.67 40.819 311.626 40.819C312.474 40.819 313.307 40.942 314.127 41.188C314.975 41.434 315.713 41.7757 316.341 42.213L317.079 41.229H318.145V47.42H316.546C315.918 45.862 315.262 44.741 314.578 44.058C313.922 43.375 313.116 43.033 312.159 43.033C311.394 43.033 310.779 43.238 310.314 43.648C309.877 44.058 309.658 44.605 309.658 45.288C309.658 46.053 309.986 46.778 310.642 47.461C311.326 48.144 312.446 48.896 314.004 49.716C315.098 50.317 316.041 50.905 316.833 51.479C317.626 52.053 318.268 52.641 318.76 53.242C319.252 53.816 319.608 54.431 319.826 55.087C320.072 55.716 320.195 56.399 320.195 57.137C320.195 58.094 320.018 58.955 319.662 59.72C319.307 60.485 318.801 61.141 318.145 61.688C317.489 62.235 316.697 62.658 315.767 62.959C314.865 63.26 313.854 63.41 312.733 63.41C311.558 63.41 310.465 63.26 309.453 62.959C308.442 62.631 307.608 62.166 306.952 61.565L306.05 63Z" fill="black"/>
<path d="M135.214 90.545H136.813C137.196 93.142 138.234 95.192 139.929 96.695C141.624 98.171 143.715 98.909 146.202 98.909C147.213 98.909 148.143 98.786 148.99 98.54C149.837 98.294 150.562 97.952 151.163 97.515C151.764 97.05 152.229 96.517 152.557 95.916C152.885 95.287 153.049 94.59 153.049 93.825C153.049 93.169 152.94 92.609 152.721 92.144C152.53 91.652 152.147 91.187 151.573 90.75C150.999 90.285 150.206 89.821 149.195 89.356C148.211 88.891 146.926 88.358 145.341 87.757C142.143 86.527 139.779 85.106 138.248 83.493C136.717 81.853 135.952 79.926 135.952 77.712C135.952 76.427 136.198 75.252 136.69 74.186C137.182 73.12 137.865 72.204 138.74 71.439C139.642 70.674 140.708 70.086 141.938 69.676C143.195 69.239 144.576 69.02 146.079 69.02C147.473 69.02 148.785 69.239 150.015 69.676C151.245 70.113 152.461 70.769 153.664 71.644L154.402 69.594H155.386L155.837 78.45H154.238C153.582 76.209 152.557 74.5 151.163 73.325C149.769 72.122 148.156 71.521 146.325 71.521C144.63 71.521 143.25 71.945 142.184 72.792C141.145 73.612 140.626 74.678 140.626 75.99C140.626 76.564 140.722 77.083 140.913 77.548C141.104 77.985 141.46 78.409 141.979 78.819C142.498 79.229 143.209 79.653 144.111 80.09C145.013 80.5 146.175 80.965 147.596 81.484C149.509 82.222 151.136 82.974 152.475 83.739C153.842 84.477 154.949 85.283 155.796 86.158C156.671 87.005 157.313 87.907 157.723 88.864C158.133 89.821 158.338 90.873 158.338 92.021C158.338 93.415 158.037 94.686 157.436 95.834C156.835 96.982 155.987 97.966 154.894 98.786C153.828 99.606 152.543 100.248 151.04 100.713C149.564 101.178 147.924 101.41 146.12 101.41C144.48 101.41 143.004 101.191 141.692 100.754C140.38 100.289 139.027 99.551 137.633 98.54L136.813 101H135.829L135.214 90.545ZM173.635 78.86C175.275 78.86 176.819 79.147 178.268 79.721C179.744 80.268 181.028 81.033 182.122 82.017C183.242 83.001 184.117 84.176 184.746 85.543C185.402 86.882 185.73 88.358 185.73 89.971C185.73 91.638 185.402 93.169 184.746 94.563C184.117 95.957 183.242 97.16 182.122 98.171C181.028 99.182 179.744 99.975 178.268 100.549C176.819 101.123 175.275 101.41 173.635 101.41C172.022 101.41 170.491 101.137 169.043 100.59C167.594 100.016 166.323 99.223 165.23 98.212C164.136 97.201 163.275 95.998 162.647 94.604C162.018 93.183 161.704 91.638 161.704 89.971C161.704 88.358 162.018 86.869 162.647 85.502C163.275 84.135 164.136 82.96 165.23 81.976C166.323 80.992 167.594 80.227 169.043 79.68C170.491 79.133 172.022 78.86 173.635 78.86ZM173.635 81.238C172.815 81.238 172.063 81.457 171.38 81.894C170.696 82.304 170.109 82.892 169.617 83.657C169.152 84.422 168.783 85.352 168.51 86.445C168.264 87.511 168.141 88.7 168.141 90.012C168.141 91.379 168.264 92.609 168.51 93.702C168.783 94.795 169.152 95.725 169.617 96.49C170.109 97.255 170.683 97.857 171.339 98.294C172.022 98.704 172.787 98.909 173.635 98.909C174.482 98.909 175.247 98.704 175.931 98.294C176.641 97.857 177.243 97.255 177.735 96.49C178.227 95.697 178.609 94.754 178.883 93.661C179.156 92.568 179.293 91.351 179.293 90.012C179.293 88.7 179.156 87.511 178.883 86.445C178.609 85.379 178.227 84.463 177.735 83.698C177.243 82.905 176.641 82.304 175.931 81.894C175.247 81.457 174.482 81.238 173.635 81.238ZM208.901 97.597C207.862 98.745 206.564 99.633 205.006 100.262C203.475 100.891 201.808 101.205 200.004 101.205C198.337 101.205 196.82 100.945 195.453 100.426C194.086 99.879 192.911 99.128 191.927 98.171C190.943 97.214 190.178 96.066 189.631 94.727C189.112 93.36 188.852 91.857 188.852 90.217C188.852 88.522 189.139 86.978 189.713 85.584C190.287 84.19 191.093 83.001 192.132 82.017C193.171 81.006 194.414 80.227 195.863 79.68C197.312 79.133 198.911 78.86 200.66 78.86C201.89 78.86 203.024 78.983 204.063 79.229C205.129 79.475 206.031 79.817 206.769 80.254C207.534 80.691 208.136 81.211 208.573 81.812C209.01 82.386 209.229 83.015 209.229 83.698C209.229 84.491 208.997 85.119 208.532 85.584C208.095 86.049 207.493 86.281 206.728 86.281C206.099 86.281 205.539 86.117 205.047 85.789C204.582 85.461 204.118 84.928 203.653 84.19C203.243 83.534 202.888 83.015 202.587 82.632C202.314 82.249 202.054 81.962 201.808 81.771C201.562 81.552 201.316 81.416 201.07 81.361C200.824 81.279 200.523 81.238 200.168 81.238C198.583 81.238 197.353 81.976 196.478 83.452C195.603 84.928 195.166 86.992 195.166 89.643C195.166 92.486 195.685 94.672 196.724 96.203C197.79 97.734 199.307 98.499 201.275 98.499C202.396 98.499 203.516 98.294 204.637 97.884C205.758 97.447 206.824 96.832 207.835 96.039L208.901 97.597ZM220.933 94.276C220.933 95.369 220.974 96.244 221.056 96.9C221.138 97.556 221.302 98.062 221.548 98.417C221.794 98.772 222.149 99.018 222.614 99.155C223.078 99.264 223.707 99.333 224.5 99.36V101H211.585V99.36C212.35 99.333 212.965 99.251 213.43 99.114C213.922 98.95 214.291 98.704 214.537 98.376C214.81 98.021 214.988 97.542 215.07 96.941C215.179 96.312 215.234 95.52 215.234 94.563V89.52C215.234 87.935 215.206 86.636 215.152 85.625C215.097 84.586 215.029 83.876 214.947 83.493C214.81 82.81 214.496 82.359 214.004 82.14C213.539 81.921 212.678 81.812 211.421 81.812V80.418L220.933 78.86V94.276ZM214.906 70.168C214.906 69.266 215.206 68.514 215.808 67.913C216.436 67.284 217.188 66.97 218.063 66.97C218.965 66.97 219.716 67.284 220.318 67.913C220.946 68.514 221.261 69.266 221.261 70.168C221.261 71.043 220.946 71.794 220.318 72.423C219.716 73.024 218.965 73.325 218.063 73.325C217.188 73.325 216.436 73.024 215.808 72.423C215.206 71.794 214.906 71.043 214.906 70.168ZM239.314 89.315C237.018 90.354 235.282 91.324 234.107 92.226C232.959 93.101 232.385 94.016 232.385 94.973C232.385 95.766 232.604 96.394 233.041 96.859C233.478 97.324 234.025 97.556 234.681 97.556C235.337 97.556 235.952 97.447 236.526 97.228C237.1 96.982 237.592 96.668 238.002 96.285C238.412 95.902 238.726 95.451 238.945 94.932C239.191 94.385 239.314 93.811 239.314 93.21V89.315ZM239.314 87.142V85.42C239.314 83.835 239.027 82.687 238.453 81.976C237.906 81.238 237.045 80.869 235.87 80.869C235.077 80.869 234.476 81.088 234.066 81.525C233.656 81.935 233.273 82.632 232.918 83.616C232.672 84.299 232.317 84.832 231.852 85.215C231.415 85.598 230.8 85.789 230.007 85.789C229.242 85.789 228.654 85.557 228.244 85.092C227.834 84.627 227.629 83.971 227.629 83.124C227.629 81.812 228.34 80.773 229.761 80.008C231.21 79.243 233.383 78.86 236.28 78.86C239.341 78.86 241.528 79.42 242.84 80.541C244.152 81.634 244.808 83.479 244.808 86.076V95.055C244.808 97.378 245.273 98.54 246.202 98.54C246.721 98.54 247.2 98.362 247.637 98.007L248.252 99.196C247.869 99.879 247.268 100.426 246.448 100.836C245.655 101.219 244.753 101.41 243.742 101.41C242.485 101.41 241.528 101.027 240.872 100.262C240.216 99.497 239.888 98.417 239.888 97.023H239.683C238.89 98.444 237.865 99.524 236.608 100.262C235.351 101 233.916 101.369 232.303 101.369C230.581 101.369 229.201 100.891 228.162 99.934C227.123 98.95 226.604 97.679 226.604 96.121C226.604 94.918 227.137 93.798 228.203 92.759C229.269 91.693 231.046 90.654 233.533 89.643L239.314 87.142ZM258.88 94.276C258.88 95.369 258.921 96.244 259.003 96.9C259.085 97.556 259.249 98.062 259.495 98.417C259.741 98.772 260.096 99.018 260.561 99.155C261.026 99.264 261.654 99.333 262.447 99.36V101H249.532V99.36C250.297 99.333 250.912 99.251 251.377 99.114C251.869 98.95 252.238 98.704 252.484 98.376C252.757 98.021 252.935 97.542 253.017 96.941C253.126 96.312 253.181 95.52 253.181 94.563V77.63C253.181 76.045 253.154 74.746 253.099 73.735C253.044 72.696 252.976 71.986 252.894 71.603C252.757 70.92 252.443 70.469 251.951 70.25C251.486 70.031 250.625 69.922 249.368 69.922V68.528L258.88 66.97V94.276Z" fill="black"/>
</svg>
