<svg width="26" height="26" viewBox="0 0 26 26" fill="none" xmlns="http://www.w3.org/2000/svg">
<path d="M13 3C11.6739 3 10.4021 3.52678 9.46447 4.46447C8.52678 5.40215 8 6.67392 8 8C8 9.32608 8.52678 10.5979 9.46447 11.5355C10.4021 12.4732 11.6739 13 13 13C14.3261 13 15.5979 12.4732 16.5355 11.5355C17.4732 10.5979 18 9.32608 18 8C18 6.67392 17.4732 5.40215 16.5355 4.46447C15.5979 3.52678 14.3261 3 13 3ZM9.25 8C9.25 7.00544 9.64509 6.05161 10.3483 5.34835C11.0516 4.64509 12.0054 4.25 13 4.25C13.9946 4.25 14.9484 4.64509 15.6517 5.34835C16.3549 6.05161 16.75 7.00544 16.75 8C16.75 8.99456 16.3549 9.94839 15.6517 10.6517C14.9484 11.3549 13.9946 11.75 13 11.75C12.0054 11.75 11.0516 11.3549 10.3483 10.6517C9.64509 9.94839 9.25 8.99456 9.25 8ZM6.76125 14.25C6.432 14.2485 6.1057 14.3121 5.80109 14.4371C5.49647 14.562 5.21955 14.7459 4.98621 14.9782C4.75287 15.2105 4.56771 15.4866 4.44137 15.7907C4.31503 16.0947 4.25 16.4207 4.25 16.75C4.25 18.8637 5.29125 20.4575 6.91875 21.4963C8.52125 22.5175 10.6812 23 13 23C15.3188 23 17.4787 22.5175 19.0812 21.4963C20.7087 20.4588 21.75 18.8625 21.75 16.75C21.75 16.087 21.4866 15.4511 21.0178 14.9822C20.5489 14.5134 19.913 14.25 19.25 14.25H6.76125ZM5.5 16.75C5.5 16.0588 6.06 15.5 6.76125 15.5H19.25C19.5815 15.5 19.8995 15.6317 20.1339 15.8661C20.3683 16.1005 20.5 16.4185 20.5 16.75C20.5 18.3863 19.7225 19.605 18.4087 20.4413C17.0712 21.295 15.1688 21.75 13 21.75C10.8312 21.75 8.92875 21.295 7.59125 20.4413C6.27875 19.6038 5.5 18.3875 5.5 16.75Z" fill="black"/>
</svg>
