<svg width="26" height="26" viewBox="0 0 26 26" fill="none" xmlns="http://www.w3.org/2000/svg">
<path fill-rule="evenodd" clip-rule="evenodd" d="M16.3333 13C16.3333 14.8416 14.8416 16.3333 13 16.3333C11.1583 16.3333 9.66663 14.8416 9.66663 13C9.66663 11.1583 11.1583 9.66663 13 9.66663C14.8416 9.66663 16.3333 11.1583 16.3333 13ZM15.5 13C15.5 14.3833 14.3833 15.5 13 15.5C11.6166 15.5 10.5 14.3833 10.5 13C10.5 11.6166 11.6166 10.5 13 10.5C14.3833 10.5 15.5 11.6166 15.5 13Z" fill="black"/>
<path fill-rule="evenodd" clip-rule="evenodd" d="M10.4999 5.5C10.4999 4.11667 11.6166 3 12.9999 3C14.3833 3 15.4999 4.11667 15.4999 5.5V5.63333C15.4999 5.96667 15.7666 6.18333 16.0508 6.18333C16.1841 6.18333 16.3258 6.13333 16.4341 6.025L16.5341 5.925C17.0174 5.43333 17.6591 5.19167 18.3008 5.19167C18.7949 5.1921 19.2778 5.33896 19.6886 5.61369C20.0993 5.88843 20.4194 6.27871 20.6084 6.73526C20.7974 7.1918 20.8469 7.69412 20.7507 8.17879C20.6544 8.66345 20.4166 9.10871 20.0674 9.45833L19.9674 9.55833C19.6258 9.90833 19.8674 10.5 20.3591 10.5H20.4924C21.8758 10.5 22.9924 11.6167 22.9924 13C22.9924 14.3833 21.8758 15.5 20.4924 15.5H20.3591C19.8674 15.5 19.6166 16.0917 19.9674 16.4417L20.0674 16.5417C20.5356 17.0104 20.7986 17.6458 20.7986 18.3083C20.7986 18.9708 20.5356 19.6062 20.0674 20.075C19.5841 20.5667 18.9424 20.8083 18.3008 20.8083C17.6583 20.8083 17.0258 20.5667 16.5341 20.075L16.4341 19.975C16.3568 19.8995 16.259 19.8485 16.1528 19.8283C16.0467 19.8081 15.9369 19.8196 15.8373 19.8614C15.7376 19.9031 15.6525 19.9733 15.5925 20.0632C15.5325 20.1531 15.5003 20.2586 15.4999 20.3667V20.5C15.4999 21.8833 14.3833 23 12.9999 23C11.6166 23 10.4999 21.8833 10.4999 20.5V20.3667C10.4999 20.0333 10.2333 19.8167 9.94911 19.8167C9.81578 19.8167 9.67411 19.8667 9.56578 19.975L9.46578 20.075C8.98245 20.5667 8.34078 20.8083 7.69911 20.8083C7.20498 20.8079 6.72206 20.661 6.31134 20.3863C5.90062 20.1116 5.58053 19.7213 5.39149 19.2647C5.20245 18.8082 5.15295 18.3059 5.24923 17.8212C5.34551 17.3366 5.58326 16.8913 5.93245 16.5417L6.03245 16.4417C6.37411 16.0917 6.13245 15.5 5.64078 15.5H5.50745C4.12411 15.5 3.00745 14.3833 3.00745 13C3.00745 11.6167 4.12411 10.5 5.50745 10.5H5.64078C6.13245 10.5 6.38328 9.90833 6.03245 9.55833L5.93245 9.45833C5.46428 8.98958 5.20131 8.35417 5.20131 7.69167C5.20131 7.02916 5.46428 6.39375 5.93245 5.925C6.41578 5.43333 7.05745 5.19167 7.69911 5.19167C8.34161 5.19167 8.97411 5.43333 9.46578 5.925L9.56578 6.025C9.6431 6.10047 9.74094 6.1515 9.84708 6.1717C9.95322 6.19191 10.063 6.18041 10.1626 6.13863C10.2623 6.09685 10.3474 6.02665 10.4074 5.93679C10.4674 5.84692 10.4996 5.74138 10.4999 5.63333V5.5ZM14.6666 5.5C14.6666 4.58333 13.9158 3.83333 12.9999 3.83333C12.0841 3.83333 11.3333 4.575 11.3333 5.49167V5.625C11.3333 6.38333 10.7158 7.00833 9.94995 7.00833C9.58328 7.00833 9.23245 6.85833 8.97495 6.6L8.87495 6.5C8.72127 6.34459 8.53828 6.22122 8.33659 6.13701C8.1349 6.05281 7.91851 6.00945 7.69995 6.00945C7.48138 6.00945 7.26499 6.05281 7.0633 6.13701C6.86161 6.22122 6.67863 6.34459 6.52495 6.5C6.36999 6.65479 6.24705 6.8386 6.16318 7.04093C6.07931 7.24326 6.03614 7.46014 6.03614 7.67917C6.03614 7.89819 6.07931 8.11507 6.16318 8.3174C6.24705 8.51973 6.36999 8.70354 6.52495 8.85833L6.62495 8.95833C7.02495 9.35833 7.14245 9.95 6.92495 10.4667C6.71661 10.9833 6.20745 11.3167 5.64995 11.3167H5.51661C4.59995 11.3167 3.84161 12.0833 3.84161 13C3.84161 13.9167 4.60161 14.65 5.51661 14.65H5.64995C6.20911 14.65 6.70828 14.9833 6.92495 15.5C7.14161 16.0167 7.02495 16.6083 6.62495 17.0083L6.52495 17.1083C6.36999 17.2631 6.24705 17.4469 6.16318 17.6493C6.07931 17.8516 6.03614 18.0685 6.03614 18.2875C6.03614 18.5065 6.07931 18.7234 6.16318 18.9257C6.24705 19.1281 6.36999 19.3119 6.52495 19.4667C6.67863 19.6221 6.86161 19.7455 7.0633 19.8297C7.26499 19.9139 7.48138 19.9572 7.69995 19.9572C7.91851 19.9572 8.1349 19.9139 8.33659 19.8297C8.53828 19.7455 8.72127 19.6221 8.87495 19.4667L8.97495 19.3667C9.24161 19.1 9.58411 18.9583 9.94995 18.9583C10.7091 18.9583 11.3333 19.575 11.3333 20.3417V20.475C11.3333 21.3917 12.0841 22.1667 12.9999 22.1667C13.9158 22.1667 14.6666 21.3917 14.6666 20.475V20.3417C14.6666 19.95 14.8166 19.5917 15.0999 19.3333C15.3619 19.087 15.7097 18.9526 16.0692 18.9589C16.4288 18.9651 16.7717 19.1114 17.0249 19.3667L17.1249 19.4667C17.2786 19.6221 17.4616 19.7455 17.6633 19.8297C17.865 19.9139 18.0814 19.9572 18.2999 19.9572C18.5185 19.9572 18.7349 19.9139 18.9366 19.8297C19.1383 19.7455 19.3213 19.6221 19.4749 19.4667C20.1258 18.8167 20.1258 17.7583 19.4749 17.1083L19.3749 17.0083C18.9749 16.6083 18.8583 16.0167 19.0749 15.5C19.2833 14.9833 19.7924 14.6667 20.3499 14.6667H20.4833C21.3999 14.6667 22.1583 13.9167 22.1583 13C22.1583 12.0833 21.3983 11.3333 20.4833 11.3333H20.3499C19.7908 11.3333 19.2916 10.9833 19.0749 10.4667C18.8583 9.95 18.9749 9.35833 19.3749 8.95833L19.4749 8.85833C19.6304 8.70465 19.7537 8.52167 19.8379 8.31998C19.9221 8.11829 19.9655 7.9019 19.9655 7.68333C19.9655 7.46477 19.9221 7.24838 19.8379 7.04669C19.7537 6.845 19.6304 6.66201 19.4749 6.50833C19.3213 6.35293 19.1383 6.22955 18.9366 6.14535C18.7349 6.06114 18.5185 6.01778 18.2999 6.01778C18.0814 6.01778 17.865 6.06114 17.6633 6.14535C17.4616 6.22955 17.2786 6.35293 17.1249 6.50833L17.0249 6.60833C16.7583 6.875 16.4158 7.01667 16.0499 7.01667C15.2908 7.01667 14.6666 6.4 14.6666 5.63333V5.5Z" fill="black"/>
</svg>
